#!OML:ASF H:\Terrain\Patient Classification 1\Animal2\Wednesday\Animal2.ASF
:FULLY-SPECIFIED
:DEGREES
2729
root 15.2563 15.4878 -5.87281 21.5421 -4.77993 0.720255
lowerback 27.0044 -1.38045 0.0118419
upperback 9.81703 -1.68441 1.31318
thorax -3.96774 -0.855436 1.92181
lowerneck 10.1189 10.9946 15.017
upperneck -30.4437 11.2408 -31.7186
head -7.53733 7.74937 -15.3945
rclavicle -1.3418e-014 2.14936e-014
rhumerus -11.6545 12.8532 -81.7415
rradius 119.946
rwrist -12.845
rhand -26.1056 9.4526
rfingers 7.12502
rthumb 0.44371 -20.5267
lclavicle -1.3418e-014 2.14936e-014
lhumerus -26.3524 4.84852 71.2206
lradius 125.666
lwrist 89.3653
lhand -39.4836 41.5098
lfingers 7.12502
lthumb -12.47 71.1178
rfemur -61.538 6.00895 -3.05241
rtibia 66.2031
rfoot -28.3139 -6.20439
rtoes -25.7161
lfemur -50.7345 5.04442 3.7009
ltibia 55.8929
lfoot -23.5457 4.46698
ltoes -45.9884
2730
root 15.269 15.4914 -5.87146 21.5339 -4.74646 0.680184
lowerback 26.9431 -1.3527 0.0667439
upperback 9.87953 -1.63782 1.30965
thorax -3.87248 -0.833052 1.86983
lowerneck 10.0712 10.9802 14.9347
upperneck -30.4731 11.2147 -31.6168
head -7.56387 7.73132 -15.3385
rclavicle 7.28049e-015 1.19271e-014
rhumerus -11.4056 12.7367 -81.6201
rradius 119.78
rwrist -12.9919
rhand -25.8714 9.39635
rfingers 7.12502
rthumb 0.669952 -20.5823
lclavicle 7.28049e-015 1.19271e-014
lhumerus -26.1105 5.2777 70.9317
lradius 125.696
lwrist 89.5909
lhand -38.6334 41.4104
lfingers 7.12502
lthumb -11.6501 71.0665
rfemur -61.4279 5.92148 -3.02618
rtibia 66.0594
rfoot -28.3716 -5.85591
rtoes -24.7666
lfemur -50.7556 5.08245 3.67601
ltibia 55.92
lfoot -23.5151 4.39735
ltoes -45.855
2731
root 15.2832 15.4948 -5.87051 21.5669 -4.74763 0.66005
lowerback 26.8426 -1.31345 0.0500732
upperback 9.8699 -1.59401 1.30353
thorax -3.83663 -0.812288 1.85726
lowerneck 10.2869 10.9644 14.8995
upperneck -30.6208 11.2078 -31.5304
head -7.67157 7.73287 -15.3488
rclavicle 4.62174e-015 2.49475e-014
rhumerus -11.3985 12.8015 -81.6087
rradius 119.646
rwrist -13.0187
rhand -26.1082 9.61706
rfingers 7.12502
rthumb 0.441283 -20.3622
lclavicle 4.62174e-015 2.49475e-014
lhumerus -26.0973 5.42165 70.7838
lradius 125.693
lwrist 89.0661
lhand -37.8983 41.3768
lfingers 7.12502
lthumb -10.9412 71.0717
rfemur -61.3635 5.77833 -2.99855
rtibia 65.9511
rfoot -28.3412 -5.94937
rtoes -25.7521
lfemur -50.8184 5.11878 3.61769
ltibia 55.9897
lfoot -23.569 4.2751
ltoes -45.7128
2732
root 15.2939 15.5023 -5.86915 21.5669 -4.83694 0.81938
lowerback 26.7591 -1.23136 -0.265538
upperback 9.87868 -1.56901 1.28687
thorax -3.77978 -0.805881 2.01012
lowerneck 10.2762 10.9653 15.1391
upperneck -30.6286 11.2196 -31.7397
head -7.62238 7.73891 -15.479
rclavicle 5.76476e-015 6.69656e-015
rhumerus -11.4434 12.8982 -81.6199
rradius 119.603
rwrist -12.8514
rhand -26.3399 9.81508
rfingers 7.12502
rthumb 0.217419 -20.1646
lclavicle 5.76476e-015 6.69656e-015
lhumerus -26.1414 5.53765 70.8529
lradius 125.852
lwrist 88.7685
lhand -37.9279 40.9166
lfingers 7.12502
lthumb -10.9697 70.61
rfemur -61.3095 5.6584 -3.18546
rtibia 65.8611
rfoot -28.3603 -5.93078
rtoes -26.9685
lfemur -50.8328 5.10997 3.3546
ltibia 56.0701
lfoot -23.6883 4.16712
ltoes -45.6378
2733
root 15.3015 15.4993 -5.87123 21.732 -4.87291 0.814697
lowerback 26.4459 -1.17092 -0.416518
upperback 9.93109 -1.52943 1.3266
thorax -3.5686 -0.792838 2.11879
lowerneck 10.1111 10.9751 15.23
upperneck -30.6177 11.2086 -31.8821
head -7.56333 7.73428 -15.534
rclavicle 1.22501e-014 -1.14425e-014
rhumerus -11.3865 12.9087 -81.577
rradius 119.604
rwrist -12.7799
rhand -26.2767 9.67248
rfingers 7.12502
rthumb 0.27854 -20.3071
lclavicle 1.22501e-014 -1.14425e-014
lhumerus -26.0139 5.66979 71.0246
lradius 126.055
lwrist 88.9145
lhand -38.5662 40.2263
lfingers 7.12502
lthumb -11.5854 69.886
rfemur -61.5029 5.56713 -3.2345
rtibia 65.81
rfoot -28.3459 -5.54169
rtoes -26.3793
lfemur -51.0671 5.24047 3.29321
ltibia 56.1692
lfoot -23.7043 4.27377
ltoes -45.9651
2734
root 15.3072 15.4944 -5.87067 21.8791 -4.83844 0.548819
lowerback 26.1629 -1.15039 -0.263178
upperback 9.97154 -1.46571 1.4067
thorax -3.39297 -0.763102 2.09169
lowerneck 10.0985 10.987 14.9366
upperneck -30.6503 11.1916 -31.6932
head -7.6255 7.73415 -15.4071
rclavicle 1.95803e-014 -6.27414e-015
rhumerus -11.3088 12.9154 -81.5324
rradius 119.621
rwrist -12.8425
rhand -26.39 9.34057
rfingers 7.12502
rthumb 0.169066 -20.6391
lclavicle 1.95803e-014 -6.27414e-015
lhumerus -25.884 5.72502 71.1623
lradius 126.085
lwrist 88.7802
lhand -38.7998 39.4896
lfingers 7.12502
lthumb -11.8106 69.1365
rfemur -61.6486 5.60965 -2.98494
rtibia 65.7536
rfoot -28.1291 -5.56553
rtoes -25.9602
lfemur -51.2722 5.48736 3.53167
ltibia 56.275
lfoot -23.7118 4.09749
ltoes -45.4354
2735
root 15.3162 15.5014 -5.86438 21.7169 -4.79431 0.3956
lowerback 26.2884 -1.158 -0.114402
upperback 10.0311 -1.44087 1.40097
thorax -3.39182 -0.74864 1.99566
lowerneck 9.97283 10.9702 14.9037
upperneck -30.4998 11.1837 -31.5996
head -7.56621 7.71416 -15.3212
rclavicle -2.04997e-014 1.69215e-014
rhumerus -11.2416 12.8762 -81.5787
rradius 119.562
rwrist -12.8299
rhand -26.7272 9.32418
rfingers 7.12502
rthumb -0.156631 -20.6555
lclavicle -2.04997e-014 1.69215e-014
lhumerus -25.7661 5.77577 71.231
lradius 125.999
lwrist 88.3634
lhand -38.6633 39.235
lfingers 7.12502
lthumb -11.6789 68.8894
rfemur -61.371 5.6639 -2.78929
rtibia 65.6595
rfoot -28.0253 -5.87065
rtoes -26.8061
lfemur -51.1256 5.52318 3.64701
ltibia 56.345
lfoot -23.772 3.73133
ltoes -44.3709
2736
root 15.3258 15.5079 -5.86231 21.511 -4.70034 0.371056
lowerback 26.5372 -1.17547 -0.0742287
upperback 10.0633 -1.45186 1.38438
thorax -3.47576 -0.752147 1.9638
lowerneck 9.95009 10.9135 15.1667
upperneck -30.4354 11.1444 -31.6988
head -7.5159 7.676 -15.4013
rclavicle -1.35795e-014 -1.29086e-014
rhumerus -11.3011 12.7733 -81.6493
rradius 119.518
rwrist -12.8438
rhand -26.8268 9.54642
rfingers 7.12502
rthumb -0.252805 -20.4332
lclavicle -1.35795e-014 -1.29086e-014
lhumerus -25.659 5.76342 71.2974
lradius 125.963
lwrist 87.996
lhand -38.8675 39.092
lfingers 7.12502
lthumb -11.8759 68.7352
rfemur -61.0429 5.60343 -2.70421
rtibia 65.5963
rfoot -28.1354 -5.72699
rtoes -26.1712
lfemur -50.9809 5.44952 3.63473
ltibia 56.3954
lfoot -23.8384 3.66672
ltoes -44.5225
2737
root 15.3317 15.5054 -5.86371 21.4245 -4.60924 0.376202
lowerback 26.6786 -1.18427 -0.147154
upperback 10.0273 -1.47653 1.40281
thorax -3.57949 -0.764526 2.03719
lowerneck 10.1637 10.8714 15.2968
upperneck -30.5066 11.115 -31.7475
head -7.57386 7.66344 -15.4883
rclavicle -1.21321e-014 -5.40446e-016
rhumerus -11.4356 12.7342 -81.6697
rradius 119.548
rwrist -12.9967
rhand -26.7554 9.60788
rfingers 7.12502
rthumb -0.183891 -20.3718
lclavicle -1.21321e-014 -5.40446e-016
lhumerus -25.7071 5.78914 71.3308
lradius 126.114
lwrist 87.8073
lhand -39.0132 39.2699
lfingers 7.12502
lthumb -12.0164 68.9049
rfemur -60.9049 5.52413 -2.68217
rtibia 65.6042
rfoot -28.2328 -5.39376
rtoes -24.6902
lfemur -50.9854 5.43148 3.60622
ltibia 56.447
lfoot -23.8806 3.7251
ltoes -45.2626
2738
root 15.3358 15.4974 -5.8652 21.4935 -4.53266 0.28104
lowerback 26.6705 -1.19138 -0.127668
upperback 9.94782 -1.47842 1.41896
thorax -3.66371 -0.764043 2.04544
lowerneck 10.2539 10.8566 15.3872
upperneck -30.4247 11.136 -31.7377
head -7.55216 7.66566 -15.4959
rclavicle 7.34872e-015 -1.77029e-014
rhumerus -11.6092 12.7216 -81.6679
rradius 119.614
rwrist -13.0848
rhand -26.8083 9.61955
rfingers 7.12502
rthumb -0.23493 -20.3601
lclavicle 7.34872e-015 -1.77029e-014
lhumerus -25.744 5.88333 71.259
lradius 126.286
lwrist 87.8644
lhand -38.7729 40.1309
lfingers 7.12502
lthumb -11.7847 69.7793
rfemur -60.9651 5.45472 -2.57058
rtibia 65.6457
rfoot -28.1933 -5.71491
rtoes -25.835
lfemur -51.1491 5.53705 3.68377
ltibia 56.5255
lfoot -23.7686 3.62283
ltoes -45.4283
2739
root 15.3427 15.4906 -5.86856 21.6077 -4.4497 0.242095
lowerback 26.605 -1.21328 -0.114751
upperback 9.9131 -1.50242 1.41754
thorax -3.67059 -0.774856 2.04218
lowerneck 10.1207 10.8853 15.4694
upperneck -30.3009 11.1924 -31.7686
head -7.45682 7.68159 -15.4792
rclavicle 1.62755e-014 -3.14328e-014
rhumerus -11.6454 12.6756 -81.6323
rradius 119.663
rwrist -13.0242
rhand -26.7764 9.45202
rfingers 7.12502
rthumb -0.204142 -20.5276
lclavicle 1.62755e-014 -3.14328e-014
lhumerus -25.6481 5.89652 71.2035
lradius 126.246
lwrist 87.8439
lhand -38.4434 40.2783
lfingers 7.12502
lthumb -11.4669 69.9447
rfemur -61.0842 5.29189 -2.51205
rtibia 65.7063
rfoot -28.1374 -5.97585
rtoes -27.1714
lfemur -51.3988 5.61087 3.69651
ltibia 56.6289
lfoot -23.6643 3.50696
ltoes -45.1543
2740
root 15.3521 15.4869 -5.87059 21.6426 -4.42782 0.485086
lowerback 26.5727 -1.23239 -0.348726
upperback 9.92646 -1.58577 1.34947
thorax -3.63301 -0.817941 2.12458
lowerneck 10.0565 10.9676 15.4134
upperneck -30.3901 11.2823 -31.7792
head -7.45048 7.73339 -15.4688
rclavicle -5.76476e-015 8.48562e-015
rhumerus -11.5469 12.6548 -81.6283
rradius 119.649
rwrist -12.9196
rhand -26.7422 9.10221
rfingers 7.12502
rthumb -0.171067 -20.8775
lclavicle -5.76476e-015 8.48562e-015
lhumerus -25.6292 5.91305 71.143
lradius 126.228
lwrist 87.9663
lhand -38.1431 39.5399
lfingers 7.12502
lthumb -11.1773 69.2222
rfemur -61.1553 5.042 -2.77311
rtibia 65.7801
rfoot -28.2429 -5.6568
rtoes -26.7218
lfemur -51.5817 5.47784 3.41481
ltibia 56.7352
lfoot -23.7154 3.51046
ltoes -44.9106
2741
root 15.3603 15.4843 -5.87078 21.6491 -4.3588 0.602938
lowerback 26.5975 -1.23472 -0.458214
upperback 9.90817 -1.61515 1.32096
thorax -3.66172 -0.83265 2.16564
lowerneck 10.0514 11.0105 15.4867
upperneck -30.4102 11.3514 -31.833
head -7.42281 7.7678 -15.4987
rclavicle 7.20594e-016 1.09332e-014
rhumerus -11.5632 12.6437 -81.6163
rradius 119.551
rwrist -12.6579
rhand -27.0549 8.89177
rfingers 7.12502
rthumb -0.473086 -21.0875
lclavicle 7.20594e-016 1.09332e-014
lhumerus -25.6694 5.84121 71.1867
lradius 126.303
lwrist 88.2083
lhand -38.0153 39.2131
lfingers 7.12502
lthumb -11.054 68.902
rfemur -61.149 4.88825 -2.88979
rtibia 65.8272
rfoot -28.3877 -5.54221
rtoes -26.452
lfemur -51.7314 5.35385 3.28659
ltibia 56.8692
lfoot -23.8149 3.268
ltoes -44.1645
